<svg xmlns="http://www.w3.org/2000/svg" xmlns:xlink="http://www.w3.org/1999/xlink" width="500" zoomAndPan="magnify" viewBox="0 0 375 374.999991" height="500" preserveAspectRatio="xMidYMid meet" version="1.0"><defs><clipPath id="4cda3a6ad0"><path d="M 75.648438 28.125 L 299.148438 28.125 L 299.148438 346.875 L 75.648438 346.875 Z M 75.648438 28.125 " clip-rule="nonzero"/></clipPath></defs><g clip-path="url(#4cda3a6ad0)"><path fill="#ffffff" d="M 299.335938 170.507812 L 299.335938 182.046875 C 299.335938 239.945312 255.148438 287.703125 198.71875 293.3125 L 198.71875 324.175781 L 244.308594 324.175781 C 250.558594 324.175781 255.660156 329.277344 255.660156 335.523438 C 255.660156 341.773438 250.558594 346.875 244.308594 346.875 L 130.683594 346.875 C 124.4375 346.875 119.335938 341.773438 119.335938 335.523438 C 119.335938 329.277344 124.4375 324.175781 130.683594 324.175781 L 175.957031 324.175781 L 175.957031 293.25 C 119.71875 287.511719 75.65625 239.816406 75.65625 182.046875 L 75.65625 170.507812 C 75.65625 164.257812 80.757812 159.15625 87.007812 159.15625 C 93.257812 159.15625 98.355469 164.257812 98.355469 170.507812 L 98.355469 182.046875 C 98.355469 231.210938 138.335938 271.1875 187.496094 271.1875 C 236.660156 271.1875 276.636719 231.210938 276.636719 182.046875 L 276.636719 170.507812 C 276.636719 164.257812 281.738281 159.15625 287.988281 159.15625 C 294.234375 159.15625 299.335938 164.195312 299.335938 170.507812 Z M 187.496094 248.488281 C 223.078125 248.488281 251.960938 219.605469 251.960938 184.023438 L 251.960938 92.589844 C 251.960938 57.007812 223.078125 28.125 187.496094 28.125 C 151.917969 28.125 123.03125 57.007812 123.03125 92.589844 L 123.03125 184.023438 C 123.03125 219.605469 151.917969 248.488281 187.496094 248.488281 Z M 187.496094 248.488281 " fill-opacity="1" fill-rule="nonzero"/></g></svg>